<?xml version="1.0" standalone="no"?>
<!DOCTYPE svg PUBLIC "-//W3C//DTD SVG 20010904//EN"
 "http://www.w3.org/TR/2001/REC-SVG-20010904/DTD/svg10.dtd">
<svg version="1.0" xmlns="http://www.w3.org/2000/svg"
 width="768.000000pt" height="768.000000pt" viewBox="0 0 768.000000 768.000000"
 preserveAspectRatio="xMidYMid meet">

<g transform="translate(0.000000,768.000000) scale(0.100000,-0.100000)"
fill="#000000" stroke="none">
<path d="M3635 7674 c-1275 -81 -2378 -735 -3058 -1812 -82 -130 -248 -458
-304 -602 -186 -478 -267 -904 -267 -1420 0 -285 15 -454 60 -697 193 -1048
821 -1975 1724 -2548 402 -255 887 -444 1354 -529 248 -46 412 -60 696 -60
275 0 430 13 670 55 952 166 1825 705 2409 1488 406 544 655 1178 737 1876 24
207 24 623 0 830 -58 492 -185 911 -405 1340 -197 386 -427 693 -748 1005
-613 595 -1388 959 -2243 1055 -134 15 -509 26 -625 19z m1635 -3006 c0 -1657
-5 -1826 -61 -2102 -77 -382 -309 -680 -668 -861 -211 -105 -482 -152 -815
-142 -207 6 -326 25 -476 73 -194 63 -311 134 -451 275 -190 191 -292 391
-348 680 -23 120 -47 408 -34 419 8 8 843 114 848 108 1 -2 7 -64 14 -139 21
-249 70 -387 174 -493 105 -107 241 -153 412 -142 253 17 387 113 440 317 50
191 48 111 52 1842 l4 1617 454 0 455 0 0 -1452z"/>
</g>
</svg>
